<svg width="474" height="380" viewBox="0 0 474 380" fill="none" xmlns="http://www.w3.org/2000/svg">
<path d="M11.1361 289.872C-17.8954 334.369 16.6345 365.636 37.5284 375.708C128.582 375.708 330.483 378.454 409.66 375.708C508.631 372.274 479.599 228.758 413.619 208.844C347.638 188.93 402.053 111.225 361.027 83.7619C230.258 -3.77576 208.419 153.91 71.8384 142.236C9.41894 136.901 47.4255 234.251 11.1361 289.872Z" fill="#FFF4E4"/>
<rect width="330.258" height="269.823" rx="60" fill="#FFEACB"/>
<path d="M0 32.2689C0 14.4473 14.4473 0 32.2689 0H297.989C315.811 0 330.258 14.4473 330.258 32.2689H0Z" fill="#FED085"/>
<ellipse cx="26.6667" cy="16.821" rx="4.78635" ry="4.80601" fill="white"/>
<ellipse cx="26.6667" cy="16.821" rx="4.78635" ry="4.80601" fill="white"/>
<ellipse cx="42.7353" cy="16.821" rx="4.78635" ry="4.80601" fill="white"/>
<ellipse cx="42.7353" cy="16.821" rx="4.78635" ry="4.80601" fill="white"/>
<ellipse cx="58.8037" cy="16.821" rx="4.78635" ry="4.80601" fill="white"/>
<ellipse cx="58.8037" cy="16.821" rx="4.78635" ry="4.80601" fill="white"/>
<rect x="145.984" y="47.0302" width="168.548" height="146.24" rx="40" fill="#FFE2B7"/>
<rect x="196.582" y="62.4781" width="50.2567" height="3.43285" rx="1.71643" fill="#FDD79F"/>
<rect x="195.899" y="72.0902" width="24.6155" height="3.43287" rx="1.71643" fill="#FDD79F"/>
<rect x="195.899" y="81.7023" width="86.4962" height="3.43287" rx="1.71643" fill="#FDD79F"/>
<rect x="194.189" y="99.8964" width="22.5642" height="3.43287" rx="1.71643" fill="#FDD79F"/>
<rect x="193.505" y="109.508" width="86.4962" height="3.43288" rx="1.71644" fill="#FDD79F"/>
<rect x="193.505" y="119.12" width="86.4962" height="3.43287" rx="1.71643" fill="#FDD79F"/>
<rect x="190.428" y="145.21" width="85.8124" height="3.43287" rx="1.71643" fill="#FDD79F"/>
<rect x="189.745" y="154.822" width="86.4962" height="3.43287" rx="1.71643" fill="#FDD79F"/>
<rect x="189.745" y="164.434" width="86.4962" height="3.43285" rx="1.71643" fill="#FDD79F"/>
<ellipse cx="168.836" cy="156.71" rx="11.4531" ry="11.5001" fill="white"/>
<ellipse cx="168.836" cy="75.008" rx="11.4531" ry="11.5001" fill="#EE6754"/>
<path fill-rule="evenodd" clip-rule="evenodd" d="M168.506 78.6543C168.157 79.0565 167.59 79.0565 167.241 78.6543L164.141 75.0653C163.792 74.6631 163.792 74.0111 164.141 73.6089C164.491 73.2067 165.057 73.2067 165.406 73.6089L167.873 76.4696L172.608 71.0187C172.958 70.6165 173.524 70.6165 173.874 71.0187C174.223 71.4209 174.223 72.0729 173.874 72.4751L168.506 78.6543Z" fill="white"/>
<path fill-rule="evenodd" clip-rule="evenodd" d="M168.506 160.356C168.157 160.759 167.59 160.759 167.241 160.356L164.141 156.767C163.792 156.365 163.792 155.713 164.141 155.311C164.491 154.909 165.057 154.909 165.406 155.311L167.873 158.172L172.608 152.721C172.958 152.319 173.524 152.319 173.874 152.721C174.223 153.123 174.223 153.775 173.874 154.177L168.506 160.356Z" fill="#EE6754"/>
<rect x="15.7266" y="50.8064" width="116.582" height="131.822" rx="50" fill="#FFE2B7"/>
<path d="M15.7266 72.0901C15.7266 60.3354 25.2556 50.8064 37.0103 50.8064H111.025C122.779 50.8064 132.308 60.3354 132.308 72.0901H15.7266Z" fill="#FFBF56"/>
<path d="M51.0431 58.6704V59.5849H47.3139V62.4891H50.3416V63.4036H47.3139V67.2841H46.1938V58.6704H51.0431Z" fill="white"/>
<path d="M53.5158 59.5849V62.4644H56.642V63.3913H53.5158V66.3572H57.0112V67.2841H52.3958V58.658H57.0112V59.5849H53.5158Z" fill="white"/>
<path d="M63.0013 62.8475C63.3131 62.8969 63.5962 63.0246 63.8506 63.2306C64.1131 63.4366 64.3183 63.692 64.466 63.9968C64.6219 64.3016 64.6998 64.6271 64.6998 64.9731C64.6998 65.4098 64.589 65.8052 64.3675 66.1595C64.146 66.5055 63.8219 66.7815 63.3952 66.9875C62.9767 67.1853 62.4803 67.2841 61.9059 67.2841H58.7059V58.6704H61.7829C62.3654 58.6704 62.8618 58.7692 63.2721 58.967C63.6824 59.1565 63.9901 59.416 64.1952 59.7456C64.4003 60.0751 64.5029 60.4459 64.5029 60.8578C64.5029 61.3686 64.3634 61.7929 64.0844 62.1307C63.8136 62.4603 63.4526 62.6992 63.0013 62.8475ZM59.8259 62.3902H61.709C62.2342 62.3902 62.6403 62.2666 62.9275 62.0195C63.2147 61.7723 63.3583 61.4304 63.3583 60.9937C63.3583 60.5571 63.2147 60.2152 62.9275 59.968C62.6403 59.7208 62.2259 59.5973 61.6844 59.5973H59.8259V62.3902ZM61.8075 66.3572C62.3654 66.3572 62.8003 66.2254 63.1121 65.9618C63.4239 65.6981 63.5798 65.3315 63.5798 64.8619C63.5798 64.384 63.4157 64.0092 63.0875 63.7373C62.7593 63.4572 62.3203 63.3171 61.7706 63.3171H59.8259V66.3572H61.8075Z" fill="white"/>
<path d="M70.771 67.2841L68.7279 63.762H67.3741V67.2841H66.254V58.6704H69.0233C69.6715 58.6704 70.2171 58.7816 70.6602 59.0041C71.1115 59.2265 71.4479 59.5272 71.6695 59.9062C71.891 60.2852 72.0018 60.7177 72.0018 61.2038C72.0018 61.797 71.8295 62.3202 71.4848 62.7733C71.1484 63.2265 70.6397 63.5272 69.9587 63.6755L72.1125 67.2841H70.771ZM67.3741 62.8598H69.0233C69.6305 62.8598 70.0859 62.7115 70.3894 62.4149C70.693 62.1101 70.8448 61.7064 70.8448 61.2038C70.8448 60.693 70.693 60.2976 70.3894 60.0174C70.0941 59.7373 69.6387 59.5973 69.0233 59.5973H67.3741V62.8598Z" fill="white"/>
<path d="M74.8374 58.6704V64.1204C74.8374 64.8866 75.0221 65.4551 75.3913 65.8258C75.7687 66.1966 76.2898 66.382 76.9544 66.382C77.6108 66.382 78.1236 66.1966 78.4929 65.8258C78.8703 65.4551 79.059 64.8866 79.059 64.1204V58.6704H80.179V64.108C80.179 64.8248 80.0354 65.4304 79.7482 65.9247C79.4611 66.4108 79.0713 66.7733 78.579 67.0122C78.0949 67.2512 77.5493 67.3706 76.9421 67.3706C76.3349 67.3706 75.7851 67.2512 75.2928 67.0122C74.8087 66.7733 74.4231 66.4108 74.1359 65.9247C73.8569 65.4304 73.7174 64.8248 73.7174 64.108V58.6704H74.8374Z" fill="white"/>
<path d="M87.1182 65.3686H83.3766L82.6874 67.2841H81.5058L84.6074 58.7198H85.8997L88.989 67.2841H87.8074L87.1182 65.3686ZM86.7982 64.4541L85.2474 60.1039L83.6966 64.4541H86.7982Z" fill="white"/>
<path d="M94.8576 67.2841L92.8146 63.762H91.4607V67.2841H90.3407V58.6704H93.1099C93.7581 58.6704 94.3038 58.7816 94.7469 59.0041C95.1982 59.2265 95.5346 59.5272 95.7561 59.9062C95.9776 60.2852 96.0884 60.7177 96.0884 61.2038C96.0884 61.797 95.9161 62.3202 95.5715 62.7733C95.2351 63.2265 94.7264 63.5272 94.0453 63.6755L96.1992 67.2841H94.8576ZM91.4607 62.8598H93.1099C93.7171 62.8598 94.1725 62.7115 94.4761 62.4149C94.7797 62.1101 94.9315 61.7064 94.9315 61.2038C94.9315 60.693 94.7797 60.2976 94.4761 60.0174C94.1807 59.7373 93.7253 59.5973 93.1099 59.5973H91.4607V62.8598Z" fill="white"/>
<path d="M103.835 58.6704L101.041 64.0339V67.2841H99.921V64.0339L97.1149 58.6704H98.358L100.475 63.0329L102.592 58.6704H103.835Z" fill="white"/>
<rect x="21.3145" y="83.0753" width="20.8548" height="15.7912" rx="7.89558" fill="#FFEACB"/>
<rect x="48.323" y="83.0753" width="21.1967" height="15.7912" rx="7.89558" fill="#EE6754"/>
<rect x="75.6737" y="83.0753" width="20.8548" height="15.7912" rx="7.89558" fill="#FFEACB"/>
<rect x="102.682" y="83.0753" width="20.8548" height="15.7912" rx="7.89558" fill="#FFEACB"/>
<rect x="21.3145" y="105.389" width="20.8548" height="15.7912" rx="7.89558" fill="#FFEACB"/>
<rect x="48.323" y="105.389" width="21.1967" height="15.7912" rx="7.89558" fill="#FFEACB"/>
<rect x="75.6737" y="105.389" width="20.8548" height="15.7912" rx="7.89558" fill="#FFEACB"/>
<rect x="102.682" y="105.389" width="20.8548" height="15.7912" rx="7.89558" fill="#FFEACB"/>
<rect x="21.3145" y="127.703" width="20.8548" height="15.7912" rx="7.89559" fill="#FFEACB"/>
<rect x="48.323" y="127.703" width="21.1967" height="15.7912" rx="7.89559" fill="#FFEACB"/>
<rect x="75.6737" y="127.703" width="20.8548" height="15.7912" rx="7.89559" fill="#FFEACB"/>
<rect x="102.682" y="127.703" width="20.8548" height="15.7912" rx="7.89559" fill="#EE6754"/>
<rect x="21.3145" y="150.016" width="20.8548" height="15.7912" rx="7.89558" fill="#FFEACB"/>
<rect x="48.323" y="150.016" width="21.1967" height="15.7912" rx="7.89558" fill="#FFEACB"/>
<rect x="75.6737" y="150.016" width="20.8548" height="15.7912" rx="7.89558" fill="#EE6754"/>
<rect x="102.682" y="150.016" width="20.8548" height="15.7912" rx="7.89558" fill="#FFEACB"/>
<rect x="155.556" y="205.972" width="94.0176" height="45.6571" rx="22.8285" fill="#FFE2B7"/>
<rect x="161.026" y="107.792" width="8.54706" height="14.7613" fill="#7DB5C4"/>
<rect x="161.026" y="107.792" width="8.54706" height="14.7613" fill="#7DB5C4"/>
<rect x="167.864" y="99.2098" width="8.54705" height="23.3435" fill="#7DB5C4"/>
<rect x="167.864" y="99.2098" width="8.54705" height="23.3435" fill="#FF546C"/>
<rect x="176.411" y="105.046" width="7.86329" height="17.5076" fill="#7DB5C4"/>
<rect x="176.411" y="105.046" width="7.86329" height="17.5076" fill="#FFFFFD"/>
<path d="M93.1097 226.741C93.1097 243.14 79.8695 256.435 63.5369 256.435C47.2043 256.435 33.9641 243.14 33.9641 226.741C33.9641 210.341 47.2043 197.046 63.5369 197.046C79.8695 197.046 93.1097 210.341 93.1097 226.741ZM45.1896 226.741C45.1896 236.915 53.404 245.163 63.5369 245.163C73.6699 245.163 81.8842 236.915 81.8842 226.741C81.8842 216.566 73.6699 208.318 63.5369 208.318C53.404 208.318 45.1896 216.566 45.1896 226.741Z" fill="#FDD79F"/>
<path d="M93.1097 226.741C93.1097 243.14 79.8695 256.435 63.5369 256.435C47.2043 256.435 33.9641 243.14 33.9641 226.741C33.9641 210.341 47.2043 197.046 63.5369 197.046C79.8695 197.046 93.1097 210.341 93.1097 226.741ZM45.1896 226.741C45.1896 236.915 53.404 245.163 63.5369 245.163C73.6699 245.163 81.8842 236.915 81.8842 226.741C81.8842 216.566 73.6699 208.318 63.5369 208.318C53.404 208.318 45.1896 216.566 45.1896 226.741Z" fill="#FDD79F"/>
<path d="M93.1097 226.741C93.1097 221.112 91.5166 215.6 88.5161 210.846C85.5156 206.091 81.2313 202.292 76.1624 199.889C71.0936 197.486 65.449 196.579 59.8865 197.273C54.324 197.968 49.0727 200.236 44.7446 203.813C40.4165 207.389 37.1898 212.127 35.4407 217.475C33.6916 222.822 33.4921 228.559 34.8653 234.015C36.2386 239.472 39.1281 244.425 43.1971 248.296C47.2661 252.167 52.347 254.797 57.8477 255.88L60.0072 244.819C56.5946 244.147 53.4423 242.516 50.9178 240.114C48.3934 237.712 46.6007 234.64 45.7487 231.254C44.8967 227.868 45.0205 224.31 46.1057 220.992C47.1909 217.674 49.1927 214.735 51.8779 212.516C54.5631 210.297 57.8211 208.89 61.2721 208.459C64.7232 208.028 68.2252 208.591 71.3699 210.081C74.5147 211.572 77.1728 213.93 79.0343 216.879C80.8959 219.829 81.8842 223.249 81.8842 226.741H93.1097Z" fill="#FDD79F"/>
<path d="M93.1097 226.741C93.1097 221.112 91.5166 215.6 88.5161 210.846C85.5156 206.091 81.2313 202.292 76.1624 199.889C71.0936 197.486 65.449 196.579 59.8865 197.273C54.324 197.968 49.0727 200.236 44.7446 203.813C40.4165 207.389 37.1898 212.127 35.4407 217.475C33.6916 222.822 33.4921 228.559 34.8653 234.015C36.2386 239.472 39.1281 244.425 43.1971 248.296C47.2661 252.167 52.347 254.797 57.8477 255.88L60.0072 244.819C56.5946 244.147 53.4423 242.516 50.9178 240.114C48.3934 237.712 46.6007 234.64 45.7487 231.254C44.8967 227.868 45.0205 224.31 46.1057 220.992C47.1909 217.674 49.1927 214.735 51.8779 212.516C54.5631 210.297 57.8211 208.89 61.2721 208.459C64.7232 208.028 68.2252 208.591 71.3699 210.081C74.5147 211.572 77.1728 213.93 79.0343 216.879C80.8959 219.829 81.8842 223.249 81.8842 226.741H93.1097Z" fill="#EE6754"/>
<path d="M93.1097 226.741C93.1097 222.436 92.1778 218.184 90.3786 214.277C88.5793 210.37 85.9557 206.903 82.6896 204.115C79.4234 201.328 75.5928 199.286 71.463 198.133C67.3332 196.979 63.003 196.741 58.7724 197.434C54.5418 198.128 50.5119 199.736 46.9618 202.149C43.4118 204.561 40.4265 207.72 38.2128 211.406C35.9991 215.092 34.6098 219.217 34.1413 223.495C33.6728 227.773 34.1361 232.103 35.4994 236.184L46.1421 232.599C45.2963 230.068 45.0088 227.381 45.2995 224.727C45.5902 222.073 46.4521 219.513 47.8255 217.227C49.1989 214.94 51.0511 212.98 53.2535 211.484C55.456 209.987 57.9562 208.989 60.5809 208.559C63.2057 208.128 65.8922 208.276 68.4543 208.992C71.0165 209.708 73.3931 210.974 75.4195 212.704C77.4458 214.433 79.0735 216.584 80.1898 219.008C81.3061 221.432 81.8842 224.07 81.8842 226.741H93.1097Z" fill="#FDD79F"/>
<path d="M93.1097 226.741C93.1097 222.436 92.1778 218.184 90.3786 214.277C88.5793 210.37 85.9557 206.903 82.6896 204.115C79.4234 201.328 75.5928 199.286 71.463 198.133C67.3332 196.979 63.003 196.741 58.7724 197.434C54.5418 198.128 50.5119 199.736 46.9618 202.149C43.4118 204.561 40.4265 207.72 38.2128 211.406C35.9991 215.092 34.6098 219.217 34.1413 223.495C33.6728 227.773 34.1361 232.103 35.4994 236.184L46.1421 232.599C45.2963 230.068 45.0088 227.381 45.2995 224.727C45.5902 222.073 46.4521 219.513 47.8255 217.227C49.1989 214.94 51.0511 212.98 53.2535 211.484C55.456 209.987 57.9562 208.989 60.5809 208.559C63.2057 208.128 65.8922 208.276 68.4543 208.992C71.0165 209.708 73.3931 210.974 75.4195 212.704C77.4458 214.433 79.0735 216.584 80.1898 219.008C81.3061 221.432 81.8842 224.07 81.8842 226.741H93.1097Z" fill="#7DB5C4"/>
<path d="M93.1097 226.741C93.1097 222.007 91.9829 217.343 89.8231 213.136C87.6633 208.928 84.5332 205.3 80.6937 202.554C76.8542 199.808 72.4166 198.024 67.7508 197.349C63.085 196.675 58.3263 197.13 53.8713 198.677L57.5402 209.33C60.3042 208.37 63.2566 208.088 66.1513 208.506C69.046 208.924 71.7991 210.032 74.1812 211.735C76.5633 213.439 78.5052 215.69 79.8452 218.3C81.1851 220.91 81.8842 223.804 81.8842 226.741H93.1097Z" fill="#FDD79F"/>
<path d="M93.1097 226.741C93.1097 222.007 91.9829 217.343 89.8231 213.136C87.6633 208.928 84.5332 205.3 80.6937 202.554C76.8542 199.808 72.4166 198.024 67.7508 197.349C63.085 196.675 58.3263 197.13 53.8713 198.677L57.5402 209.33C60.3042 208.37 63.2566 208.088 66.1513 208.506C69.046 208.924 71.7991 210.032 74.1812 211.735C76.5633 213.439 78.5052 215.69 79.8452 218.3C81.1851 220.91 81.8842 223.804 81.8842 226.741H93.1097Z" fill="#FF546C"/>
<path d="M210.771 306.974C201.471 289.123 190.258 287.407 185.813 288.78H182.394L209.232 370.997L246.326 374.773L263.762 355.034C263.306 353.26 259.181 348.82 246.326 345.25C230.258 340.788 222.395 329.287 210.771 306.974Z" fill="#F44B63"/>
<mask id="mask0_81_3467" style="mask-type:alpha" maskUnits="userSpaceOnUse" x="182" y="288" width="82" height="87">
<path d="M210.771 306.974C201.471 289.123 190.258 287.406 185.813 288.78H182.394L209.232 370.997L246.326 374.773L263.762 355.034C263.306 353.26 259.181 348.82 246.326 345.25C230.258 340.787 222.395 329.287 210.771 306.974Z" fill="#F44B63"/>
</mask>
<g mask="url(#mask0_81_3467)">
<path d="M221.369 347.577C235.386 366.286 242.395 362.682 243.42 363.712L230.942 375.555C226.098 374.354 216.343 371.779 216.07 371.092C215.796 370.406 195.215 316.109 184.958 289.047L197.95 285.614C202.907 288.818 211.728 296.016 207.352 299.174C201.882 303.122 216.025 340.445 221.369 347.577Z" fill="#EA3F57"/>
</g>
<path d="M112.821 187.79C118.291 169.665 155.215 178.865 155.215 187.79C182.565 226.238 172.993 289.403 134.702 301.761C104.069 311.648 92.3084 285.741 90.2571 271.552C93.448 273.383 102.428 277.457 112.821 279.105C125.813 281.164 128.548 269.493 118.291 250.955C108.035 232.418 105.984 210.447 112.821 187.79Z" fill="#5E1212"/>
<mask id="mask1_81_3467" style="mask-type:alpha" maskUnits="userSpaceOnUse" x="90" y="177" width="81" height="127">
<path d="M112.821 187.79C118.291 169.665 155.215 178.865 155.215 187.79C182.565 226.238 172.993 289.403 134.702 301.761C104.069 311.648 92.3084 285.741 90.2571 271.552C93.448 273.383 102.428 277.457 112.821 279.105C125.813 281.164 128.548 269.493 118.291 250.955C108.035 232.418 105.984 210.447 112.821 187.79Z" fill="#5E1212"/>
</mask>
<g mask="url(#mask1_81_3467)">
<path d="M121.368 285.284C107.864 294.368 96.0691 281.965 88.2058 275.328L72.1373 232.418L112.138 163.074L149.403 173.716V184.701C142.679 185.159 125.127 184.861 121.368 191.567C112.138 208.031 119.317 233.791 127.18 253.015C135.044 272.239 132.818 277.582 121.368 285.284Z" fill="#7E1B1B"/>
</g>
<path d="M92.9921 338.556C96.5562 330.806 118.519 301.367 136.411 286.72C154.132 284.832 190.326 282.498 193.334 288.265C197.095 295.474 221.027 360.355 221.198 367.736C221.335 373.64 217.779 379.236 218.634 376.661L186.326 377.519C161.767 377.92 121.026 380.506 104.616 376.661C84.1031 371.855 87.1801 351.195 92.9921 338.556Z" fill="#FF546C"/>
<mask id="mask2_81_3467" style="mask-type:alpha" maskUnits="userSpaceOnUse" x="90" y="284" width="132" height="95">
<path d="M92.992 338.556C94.6331 330.18 118.519 301.367 136.411 286.72C154.132 284.832 190.326 282.498 193.334 288.265C197.095 295.474 221.027 360.355 221.198 367.736C221.335 373.64 217.779 379.236 218.634 376.661L186.326 377.519C161.767 377.92 121.026 380.506 104.616 376.661C84.1031 371.855 90.9407 349.026 92.992 338.556Z" fill="#FF546C"/>
</mask>
<g mask="url(#mask2_81_3467)">
<path d="M100.855 340.21C104.502 329.224 125.585 302.791 137.095 293.179L125.129 282.881L88.5474 313.433L63.2482 375.225L173.676 389.986L184.616 373.165C163.648 372.479 122.12 368.908 114.189 368.359C104.274 367.673 98.1201 348.448 100.855 340.21Z" fill="#F8435C"/>
</g>
<mask id="mask3_81_3467" style="mask-type:alpha" maskUnits="userSpaceOnUse" x="88" y="284" width="134" height="95">
<path d="M92.9921 338.556C96.5562 330.806 118.519 301.367 136.411 286.72C154.132 284.832 190.326 282.498 193.334 288.265C197.095 295.474 221.027 360.355 221.198 367.736C221.335 373.64 217.779 379.236 218.634 376.661L186.326 377.519C161.767 377.92 121.026 380.506 104.616 376.661C84.1031 371.855 87.1801 351.195 92.9921 338.556Z" fill="#FF546C"/>
</mask>
<g mask="url(#mask3_81_3467)">
<path d="M97.7784 310.674C107.465 306.211 128.958 299.964 137.437 310.674C148.035 324.062 157.95 331.958 168.548 322.346C179.146 312.734 189.403 308.958 196.582 318.226C202.326 325.641 209.916 317.425 212.993 312.391M93.334 324.406C98.6901 319.943 112.206 313.283 123.42 322.346C134.633 331.409 144.73 334.59 148.377 335.048L163.078 337.451C166.155 336.421 172.856 333.674 175.044 330.928C177.779 327.495 188.377 324.406 196.582 330.928C203.147 336.146 212.993 333.102 217.095 330.928M117.949 293.51C124.787 292.823 139.83 294.334 145.3 305.868C152.138 320.286 172.651 290.764 185.984 300.719C196.651 308.683 203.648 304.037 205.813 300.719M83.0775 342.6C88.2057 335.62 102.36 324.818 117.949 337.451M90.257 368.69C87.9778 362.167 87.5904 350.083 104.274 353.928C120.958 357.773 127.636 344.545 128.89 337.451M104.274 377.272C101.311 373.953 99.3511 366.904 115.214 365.257C131.078 363.609 139.602 344.431 141.881 335.048M123.42 377.272C135.841 371.665 159.454 355.851 154.531 337.451M148.377 377.272C158.064 371.436 176.001 355.301 170.257 337.451M168.548 377.272C175.36 370.406 186.675 353.448 177.437 340.54M188.377 346.033C192.708 343.401 203.694 339.716 212.993 346.033C222.292 352.349 228.719 348.665 230.771 346.033" stroke="white" stroke-opacity="0.5" stroke-width="2"/>
</g>
<path d="M137.95 271.272C141.779 265.093 157.665 266.752 165.129 268.354C180.309 270.689 185.813 271.272 191.112 275.563C194.702 280.541 195.181 283.836 192.993 293.586C190.258 305.772 187.959 313.678 165.129 309.72C141.368 305.601 136.069 294.616 132.992 290.839C131.26 288.714 133.163 278.996 137.95 271.272Z" fill="#EA3F57"/>
<path d="M143.591 275.659C144.001 277.856 150.485 281.609 153.676 283.211L169.574 290.935C174.702 291.507 185.334 292.308 186.839 290.935C188.719 289.219 190.069 285.726 187.181 281.666C182.907 275.659 164.958 272.054 157.95 271.196C151.858 270.45 143.078 272.913 143.591 275.659Z" fill="#D62840"/>
<mask id="mask4_81_3467" style="mask-type:alpha" maskUnits="userSpaceOnUse" x="132" y="266" width="63" height="45">
<path d="M137.95 271.272C141.779 265.093 157.665 266.752 165.129 268.354C180.309 270.689 185.813 271.272 191.112 275.563C194.702 280.541 195.181 283.836 192.993 293.586C190.258 305.772 187.959 313.678 165.129 309.72C141.368 305.601 136.069 294.616 132.992 290.839C131.26 288.714 133.163 278.996 137.95 271.272Z" fill="#EA3F57"/>
</mask>
<g mask="url(#mask4_81_3467)">
<path d="M136.753 299.346C136.696 294.139 138.155 282.593 144.445 278.062M142.736 302.264C143.648 296.771 146.394 285.134 150.086 282.525M152.138 307.585C152.537 302.149 154.155 290.317 157.437 286.472M161.54 311.189C162.394 305.639 164.753 293.887 167.351 291.279M172.822 312.734C173.961 308.557 176.309 298.831 176.582 293.338M183.078 312.734C183.249 311.189 187.864 294.54 184.446 291.279M186.668 291.279C187.636 289.448 189.642 284.893 189.916 281.323C190.189 277.753 190.03 272.283 189.916 269.995M189.061 307.585C190.144 302.836 191.659 292.926 189.061 291.279M133.334 293.338C133.676 292.137 134.36 274.801 142.736 272.398C149.437 270.475 152.366 278.348 152.992 282.525M158.292 279.778C158.861 277.375 158.599 271.746 152.992 268.45C147.386 265.154 141.653 264.903 139.488 265.189M162.736 273.771L157.437 264.159M182.052 288.189C183.477 285.958 186.36 280.98 186.497 278.92C186.634 276.86 186.554 268.908 186.497 265.189" stroke="#AC1B2F" stroke-width="2"/>
</g>
<path d="M152.65 281.056C157.489 280.367 164.317 271.787 164.317 263.277C174.716 255.129 193.793 244.412 186.918 266.719C178.323 294.603 190.101 290.128 182.939 293.054C177.209 295.395 162.938 289.44 156.519 286.169C154.503 283.989 147.812 281.744 152.65 281.056Z" fill="#FFC2A0"/>
<mask id="mask5_81_3467" style="mask-type:alpha" maskUnits="userSpaceOnUse" x="150" y="255" width="38" height="42">
<path d="M152.141 282.696C156.956 282.008 163.751 273.428 163.751 264.917C174.098 256.77 193.168 246.486 186.326 268.793C177.773 296.677 192.427 292.987 185.3 295.913C179.598 298.254 162.378 291.08 155.99 287.81C153.984 285.629 147.326 283.385 152.141 282.696Z" fill="#FFC2A0"/>
</mask>
<g mask="url(#mask5_81_3467)">
<path d="M181.236 277.381C169.883 281.673 162.22 264.333 162.078 262.616H161.368C170.971 259.869 190.347 254.375 191.028 254.375C191.879 254.375 192.589 273.089 181.236 277.381Z" fill="#F29386"/>
</g>
<path d="M144.616 277.623C149.061 281.514 160.998 289.328 170.257 291.698C178.975 293.929 181.369 293.929 187.522 290.668" stroke="#AC1B2F" stroke-width="5" stroke-linecap="round"/>
<path d="M170.941 268.697C152.118 263.747 145.813 247.585 147.693 219.436C158.633 172.062 191.511 181.846 206.497 194.204C208.263 199.926 212.177 220.519 207.523 240.548C201.54 266.294 185.3 272.474 170.941 268.697Z" fill="#FFC2A0"/>
<mask id="mask6_81_3467" style="mask-type:alpha" maskUnits="userSpaceOnUse" x="147" y="184" width="63" height="86">
<path d="M170.941 268.697C152.118 263.747 145.813 247.585 147.693 219.436C158.633 172.062 191.511 181.846 206.497 194.204C208.263 199.926 212.177 220.519 207.523 240.548C201.54 266.294 185.3 272.474 170.941 268.697Z" fill="#FFC2A0"/>
</mask>
<g mask="url(#mask6_81_3467)">
<path d="M164.445 227.942C157.198 234.808 149.517 228.743 146.668 226.912L142.394 212.837L186.497 191.21L215.557 201.681C214.987 202.653 210.839 206.04 198.805 211.808C186.77 217.575 184.787 209.405 185.3 204.599C181.369 209.519 171.693 221.076 164.445 227.942Z" fill="#F29386"/>
</g>
<path d="M188.89 197.122C184.388 202.958 172.787 216.655 162.394 224.757C157.365 228.677 152.107 228.951 147.522 227.651C147.249 241.913 151.055 251.804 152.992 254.966C121.026 257.712 129.744 220.637 130.086 211.025C130.428 201.413 154.531 160.391 189.745 162.279C224.958 164.167 225.471 199.869 223.249 208.107C221.471 214.699 213.391 219.207 209.574 220.637L208.552 204.221C208.535 205.03 206.059 207.414 196.069 211.025C185.813 214.733 187.01 203.301 188.89 197.122Z" fill="#5E1212"/>
<mask id="mask7_81_3467" style="mask-type:alpha" maskUnits="userSpaceOnUse" x="128" y="162" width="97" height="94">
<path d="M188.89 197.122C184.388 202.958 172.787 216.655 162.394 224.757C157.365 228.677 152.107 228.951 147.522 227.651C147.249 241.913 151.055 251.804 152.992 254.966C121.026 257.712 129.744 220.637 130.086 211.025C130.428 201.413 154.531 160.391 189.745 162.279C224.958 164.167 225.471 199.869 223.249 208.107C221.471 214.699 213.391 219.207 209.574 220.637L208.552 204.221C208.535 205.03 206.059 207.414 196.069 211.025C185.813 214.733 187.01 203.301 188.89 197.122Z" fill="#5E1212"/>
</mask>
<g mask="url(#mask7_81_3467)">
<path d="M130.941 233.104C130.12 244.913 136.525 252.672 139.83 255.075V267.776L121.368 255.075L113.847 220.403L130.941 169.253L190.087 155.522L211.283 169.253C203.306 167.651 187.693 165.979 177.779 169.253C157.504 175.948 152.138 188.134 144.958 195.686C137.779 203.238 131.967 218.343 130.941 233.104Z" fill="#7E1B1B"/>
</g>
<ellipse cx="194.018" cy="230.936" rx="2.56412" ry="4.97767" fill="black"/>
<ellipse cx="179.317" cy="231.279" rx="2.906" ry="5.66424" fill="black"/>
<ellipse cx="171.283" cy="241.858" rx="6.15388" ry="3.6045" fill="#F67E6D"/>
<ellipse cx="201.198" cy="241.858" rx="5.29917" ry="3.6045" fill="#F67E6D"/>
<path d="M188.377 236.944C189.346 239.404 191.935 242.636 194.018 243.981C196.411 245.526 192.822 247.757 190.599 248.615" stroke="#E58574" stroke-width="2.5" stroke-linecap="round"/>
<path d="M172.822 220.294C174.303 218.749 178.634 215.969 184.104 217.205M195.215 217.205C197.551 216.804 202.463 216.861 203.42 220.294" stroke="black" stroke-width="5" stroke-linecap="round"/>
<path d="M137.437 227.503C140.582 222.697 146.44 225.386 148.035 228.705C151.283 254.623 151.967 250.675 145.984 247.07C140.053 243.497 133.505 233.511 137.437 227.503Z" fill="#FFC2A0"/>
<path d="M147.522 234.808C145.642 231.547 141.608 226.26 140.514 231.203C139.991 233.566 140.618 235.955 141.697 237.897M141.697 237.897C143.439 241.035 146.361 243.011 147.522 241.845C149.403 239.957 144.931 237.211 141.697 237.897Z" stroke="#E17C6E" stroke-width="3"/>
<path d="M114.702 337.87C126.781 335.638 156.206 333.029 177.266 340.444" stroke="#AC1B2F" stroke-width="5"/>
<g filter="url(#filter0_i_81_3467)">
<path d="M220.685 360.012C210.292 352.871 190.998 348.683 184.275 350.4C183.876 356.464 184.86 367.727 189.061 370.482C197.437 375.974 215.215 374.944 218.976 373.915C221.984 373.091 215.785 365.161 214.018 362.929C220.685 365.161 227.181 373.114 227.523 372.713C228.491 371.626 231.078 367.152 220.685 360.012Z" fill="#FFC2A0"/>
</g>
<path d="M214.873 375.631C212.537 372.77 207.146 366.671 204.275 365.161" stroke="#E17C6E" stroke-width="4" stroke-linecap="round"/>
<path d="M174.702 377.519L176.411 338.213H195.899L193.676 377.519H174.702Z" fill="#EA3F57"/>
<mask id="mask8_81_3467" style="mask-type:alpha" maskUnits="userSpaceOnUse" x="174" y="338" width="22" height="40">
<path d="M174.702 377.519L176.411 338.213H195.899L193.676 377.519H174.702Z" fill="#EA3F57"/>
</mask>
<g mask="url(#mask8_81_3467)">
<path d="M185.3 345.174C177.916 345.174 177.152 367.431 176.582 379.16C174.645 378.416 170.531 376.551 169.574 375.04C168.616 373.53 165.528 344.774 164.104 330.585L197.779 327.667L204.958 350.152C202.565 351.697 192.685 345.174 185.3 345.174Z" fill="#D62840"/>
</g>
<mask id="mask9_81_3467" style="mask-type:alpha" maskUnits="userSpaceOnUse" x="174" y="338" width="22" height="40">
<path d="M174.702 377.519L176.411 338.213H195.899L193.676 377.519H174.702Z" fill="#EA3F57"/>
</mask>
<g mask="url(#mask9_81_3467)">
<path d="M174.189 342.943C180.229 342.485 193.129 342.188 196.411 344.659M172.822 351.353C178.52 353.184 191.42 356.4 197.437 354.615M172.822 364.055C178.918 364.856 192.172 365.977 196.411 364.055M170.77 372.637C171.796 373.152 195.557 374.525 198.805 371.779" stroke="#AC1B2F" stroke-width="2"/>
</g>
<g filter="url(#filter1_i_81_3467)">
<path d="M251.625 353.317C237.95 348.923 233.164 364.074 232.48 372.198L259.831 369.109C262.794 365.676 265.301 357.711 251.625 353.317Z" fill="#FFBF9C"/>
</g>
<ellipse cx="180.632" cy="258.679" rx="4.10259" ry="3.9478" fill="#BB2036"/>
<mask id="mask10_81_3467" style="mask-type:alpha" maskUnits="userSpaceOnUse" x="176" y="254" width="9" height="9">
<ellipse cx="180.632" cy="258.679" rx="4.10259" ry="3.9478" fill="#BB2036"/>
</mask>
<g mask="url(#mask10_81_3467)">
<path d="M188.495 253.358V258.851L181.726 256.573C181.453 256.481 181.172 256.413 180.888 256.37L172.427 255.075V249.239L188.495 253.358Z" fill="#FFFBFB"/>
</g>
<g filter="url(#filter2_i_81_3467)">
<rect x="197.95" y="370.139" width="161.71" height="6.86571" rx="3.43285" fill="#357290"/>
</g>
<g filter="url(#filter3_i_81_3467)">
<path d="M274.396 285.94C275.877 282.068 279.592 279.511 283.737 279.511H391.418C398.749 279.511 403.588 287.139 400.464 293.772L360.936 377.691H239.318L274.396 285.94Z" fill="#7DB5C4"/>
</g>
<mask id="mask11_81_3467" style="mask-type:alpha" maskUnits="userSpaceOnUse" x="239" y="279" width="163" height="99">
<path d="M274.396 285.94C275.877 282.068 279.592 279.511 283.737 279.511H391.418C398.749 279.511 403.588 287.139 400.464 293.772L360.936 377.691H239.318L274.396 285.94Z" fill="#7DB5C4"/>
</mask>
<g mask="url(#mask11_81_3467)">
<path d="M339.147 343.642L285.813 283.911L405.472 243.403L437.609 289.403L372.652 385.523L339.147 343.642Z" fill="#64A6C0"/>
</g>
<mask id="mask12_81_3467" style="mask-type:alpha" maskUnits="userSpaceOnUse" x="239" y="279" width="163" height="99">
<path d="M274.396 285.94C275.877 282.068 279.592 279.511 283.737 279.511H391.418C398.749 279.511 403.588 287.139 400.464 293.772L360.936 377.691H239.318L274.396 285.94Z" fill="#7DB5C4"/>
</mask>
<g mask="url(#mask12_81_3467)">
<path d="M286.497 285.97L246.155 379.344L229.232 371.264L240.685 259.881H428.036V282.537L286.497 285.97Z" fill="#163D56"/>
</g>
<g filter="url(#filter4_d_81_3467)">
<ellipse cx="328.891" cy="328.944" rx="5.47012" ry="5.49258" fill="#133B54"/>
</g>
<rect x="270.205" y="207.688" width="71.1115" height="44.6272" rx="20" fill="#FED085"/>
<path d="M328.686 219.067L324.785 214.548C324.701 214.45 324.749 214.298 324.874 214.268L330.52 212.907C330.783 212.844 331.011 213.097 330.923 213.353L328.977 219.01C328.934 219.135 328.773 219.167 328.686 219.067Z" fill="white"/>
<path fill-rule="evenodd" clip-rule="evenodd" d="M330.281 211.906C331.331 211.652 332.245 212.664 331.893 213.689L329.946 219.347C329.646 220.221 328.515 220.441 327.911 219.741L326.728 218.371L313.58 230.061C311.975 231.488 309.584 231.561 307.895 230.235L300.612 224.513C300.307 224.273 299.893 224.226 299.542 224.393L276.178 235.483L275.301 233.621L298.665 222.531C299.717 222.031 300.96 222.17 301.876 222.89L309.159 228.612C310.068 229.327 311.356 229.287 312.22 228.519L325.385 216.815L324.01 215.222C323.422 214.541 323.762 213.477 324.634 213.267L330.281 211.906ZM330.759 213.909L330.76 213.908L330.6 213.241L330.76 213.908C330.759 213.908 330.759 213.908 330.759 213.909ZM329.954 213.017L329.953 213.019C329.953 213.018 329.953 213.017 329.954 213.017ZM329.546 214.201L326.481 214.94L328.491 217.269L329.546 214.201Z" fill="white"/>
<rect x="278.41" y="236.524" width="4.78636" height="10.2986" rx="2.39318" fill="white"/>
<rect x="288.324" y="231.718" width="4.44448" height="15.1046" rx="2.22224" fill="white"/>
<rect x="297.897" y="228.285" width="4.78636" height="18.5375" rx="2.39318" fill="white"/>
<rect x="307.812" y="234.464" width="4.44444" height="12.3583" rx="2.22222" fill="white"/>
<rect x="317.384" y="228.285" width="4.78636" height="18.5375" rx="2.39318" fill="white"/>
<rect x="327.299" y="222.45" width="4.44441" height="24.3734" rx="2.2222" fill="white"/>
<path fill-rule="evenodd" clip-rule="evenodd" d="M171.92 135.941C185.232 135.941 196.023 125.106 196.023 111.74C196.023 98.3735 185.232 87.538 171.92 87.538C158.609 87.538 147.818 98.3735 147.818 111.74C147.818 125.106 158.609 135.941 171.92 135.941ZM171.92 141.091C188.064 141.091 201.151 127.95 201.151 111.74C201.151 95.5296 188.064 82.3887 171.92 82.3887C155.777 82.3887 142.69 95.5296 142.69 111.74C142.69 127.95 155.777 141.091 171.92 141.091Z" fill="#163D56"/>
<path d="M120.534 153.807L149.999 128.703L157.116 131.565C149.242 139.272 131.872 153.59 127.619 157.218C123.576 160.668 118.925 159.286 120.534 153.807Z" fill="#163D56"/>
<rect width="13.6761" height="32.2671" rx="6.83803" transform="matrix(0.9931 0.117274 -0.11633 0.993211 53.4443 316.167)" fill="#4A4A4A"/>
<mask id="mask13_81_3467" style="mask-type:alpha" maskUnits="userSpaceOnUse" x="50" y="316" width="17" height="34">
<rect width="13.676" height="32.2671" rx="6.83802" transform="matrix(0.9931 0.117274 -0.116329 0.993211 53.4443 316.167)" fill="#4A4A4A"/>
</mask>
<g mask="url(#mask13_81_3467)">
<path d="M66.272 325.607C58.2378 326.637 51.4002 323.033 50.3745 322.003C50.3745 330.585 50.5113 347.955 51.0583 348.779C51.6053 349.603 60.517 348.779 64.9045 348.264C68.0384 340.369 72.6994 324.783 66.272 325.607Z" fill="#C4C4C4"/>
</g>
<mask id="mask14_81_3467" style="mask-type:alpha" maskUnits="userSpaceOnUse" x="50" y="322" width="20" height="28">
<path d="M66.272 325.607C58.2378 326.637 51.4002 323.033 50.3745 322.003C50.3745 330.585 50.5113 347.955 51.0583 348.779C51.6053 349.603 60.517 348.779 64.9045 348.264C68.0384 340.369 72.6994 324.783 66.272 325.607Z" fill="#C4C4C4"/>
</mask>
<g mask="url(#mask14_81_3467)">
<mask id="mask15_81_3467" style="mask-type:alpha" maskUnits="userSpaceOnUse" x="50" y="322" width="18" height="28">
<path d="M66.272 325.607C58.5017 323.312 51.4002 323.033 50.3745 322.003C50.3745 330.585 50.5113 347.955 51.0583 348.779C51.6053 349.603 60.517 348.779 64.9045 348.264C62.3404 340.712 69.178 326.465 66.272 325.607Z" fill="#C4C4C4"/>
</mask>
<g mask="url(#mask15_81_3467)">
<rect width="6.15435" height="31.2367" transform="matrix(0.99059 0.136865 -0.135769 0.990741 62.0964 321.384)" fill="#929292"/>
</g>
</g>
<rect x="43.5369" y="298.316" width="12.6496" height="72.4334" fill="#FFBE5F"/>
<mask id="mask16_81_3467" style="mask-type:alpha" maskUnits="userSpaceOnUse" x="43" y="298" width="14" height="73">
<rect x="43.5369" y="298.316" width="12.6496" height="72.4334" fill="#FFBE5F"/>
</mask>
<g mask="url(#mask16_81_3467)">
<path d="M53.9643 302.435C53.554 299.552 46.4999 299.174 43.0241 299.346L42.5112 294.883L58.7506 295.398L59.0925 357.361L52.5968 359.764C53.2235 341.856 54.3745 305.319 53.9643 302.435Z" fill="#F5A836"/>
</g>
<path d="M49.6907 300.376H56.1864V301.062H49.6907V300.376Z" fill="#972D00"/>
<path d="M49.6907 300.376H56.1864V301.062H49.6907V300.376Z" fill="#972D00"/>
<path d="M49.6907 300.376H56.1864V301.062H49.6907V300.376Z" fill="#972D00"/>
<path d="M52.7676 302.435H56.1864V303.122H52.7676V302.435Z" fill="#972D00"/>
<path d="M52.7676 302.435H56.1864V303.122H52.7676V302.435Z" fill="#972D00"/>
<path d="M52.7676 302.435H56.1864V303.122H52.7676V302.435Z" fill="#972D00"/>
<path d="M52.7676 304.495H56.1864V305.182H52.7676V304.495Z" fill="#972D00"/>
<path d="M52.7676 304.495H56.1864V305.182H52.7676V304.495Z" fill="#972D00"/>
<path d="M52.7676 304.495H56.1864V305.182H52.7676V304.495Z" fill="#972D00"/>
<path d="M49.6907 306.898H56.1864V307.585H49.6907V306.898Z" fill="#972D00"/>
<path d="M49.6907 306.898H56.1864V307.585H49.6907V306.898Z" fill="#972D00"/>
<path d="M49.6907 306.898H56.1864V307.585H49.6907V306.898Z" fill="#972D00"/>
<path d="M52.7676 308.958H56.1864V309.644H52.7676V308.958Z" fill="#972D00"/>
<path d="M52.7676 308.958H56.1864V309.644H52.7676V308.958Z" fill="#972D00"/>
<path d="M52.7676 308.958H56.1864V309.644H52.7676V308.958Z" fill="#972D00"/>
<path d="M52.7676 311.017H56.1864V311.704H52.7676V311.017Z" fill="#972D00"/>
<path d="M52.7676 311.017H56.1864V311.704H52.7676V311.017Z" fill="#972D00"/>
<path d="M52.7676 311.017H56.1864V311.704H52.7676V311.017Z" fill="#972D00"/>
<path d="M49.6907 313.42H56.1864V314.107H49.6907V313.42Z" fill="#972D00"/>
<path d="M49.6907 313.42H56.1864V314.107H49.6907V313.42Z" fill="#972D00"/>
<path d="M49.6907 313.42H56.1864V314.107H49.6907V313.42Z" fill="#972D00"/>
<path d="M52.7676 315.48H56.1864V316.167H52.7676V315.48Z" fill="#972D00"/>
<path d="M52.7676 315.48H56.1864V316.167H52.7676V315.48Z" fill="#972D00"/>
<path d="M52.7676 315.48H56.1864V316.167H52.7676V315.48Z" fill="#972D00"/>
<path d="M52.7676 317.54H56.1864V318.226H52.7676V317.54Z" fill="#972D00"/>
<path d="M52.7676 317.54H56.1864V318.226H52.7676V317.54Z" fill="#972D00"/>
<path d="M52.7676 317.54H56.1864V318.226H52.7676V317.54Z" fill="#972D00"/>
<path d="M49.6907 319.943H56.1864V320.629H49.6907V319.943Z" fill="#972D00"/>
<path d="M49.6907 319.943H56.1864V320.629H49.6907V319.943Z" fill="#972D00"/>
<path d="M49.6907 319.943H56.1864V320.629H49.6907V319.943Z" fill="#972D00"/>
<path d="M52.7676 322.003H56.1864V322.689H52.7676V322.003Z" fill="#972D00"/>
<path d="M52.7676 322.003H56.1864V322.689H52.7676V322.003Z" fill="#972D00"/>
<path d="M52.7676 322.003H56.1864V322.689H52.7676V322.003Z" fill="#972D00"/>
<path d="M52.7676 324.062H56.1864V324.749H52.7676V324.062Z" fill="#972D00"/>
<path d="M52.7676 324.062H56.1864V324.749H52.7676V324.062Z" fill="#972D00"/>
<path d="M52.7676 324.062H56.1864V324.749H52.7676V324.062Z" fill="#972D00"/>
<path d="M49.6907 326.465H56.1864V327.152H49.6907V326.465Z" fill="#972D00"/>
<path d="M49.6907 326.465H56.1864V327.152H49.6907V326.465Z" fill="#972D00"/>
<path d="M49.6907 326.465H56.1864V327.152H49.6907V326.465Z" fill="#972D00"/>
<path d="M52.7676 328.525H56.1864V329.212H52.7676V328.525Z" fill="#972D00"/>
<path d="M52.7676 328.525H56.1864V329.212H52.7676V328.525Z" fill="#972D00"/>
<path d="M52.7676 328.525H56.1864V329.212H52.7676V328.525Z" fill="#972D00"/>
<path d="M52.7676 330.585H56.1864V331.271H52.7676V330.585Z" fill="#972D00"/>
<path d="M52.7676 330.585H56.1864V331.271H52.7676V330.585Z" fill="#972D00"/>
<path d="M52.7676 330.585H56.1864V331.271H52.7676V330.585Z" fill="#972D00"/>
<path d="M49.6907 332.988H56.1864V333.674H49.6907V332.988Z" fill="#972D00"/>
<path d="M49.6907 332.988H56.1864V333.674H49.6907V332.988Z" fill="#972D00"/>
<path d="M49.6907 332.988H56.1864V333.674H49.6907V332.988Z" fill="#972D00"/>
<path d="M52.7676 335.047H56.1864V335.734H52.7676V335.047Z" fill="#972D00"/>
<path d="M52.7676 335.047H56.1864V335.734H52.7676V335.047Z" fill="#972D00"/>
<path d="M52.7676 335.047H56.1864V335.734H52.7676V335.047Z" fill="#972D00"/>
<path d="M52.7676 337.107H56.1864V337.794H52.7676V337.107Z" fill="#972D00"/>
<path d="M52.7676 337.107H56.1864V337.794H52.7676V337.107Z" fill="#972D00"/>
<path d="M52.7676 337.107H56.1864V337.794H52.7676V337.107Z" fill="#972D00"/>
<rect width="3.41896" height="60.416" transform="matrix(0.995095 0.0989289 -0.098129 0.995174 66.2177 309.301)" fill="#EE6754"/>
<ellipse rx="1.70947" ry="0.686563" transform="matrix(0.99615 0.0876613 -0.0869484 0.996213 67.8636 309.448)" fill="#B33C2C"/>
<rect width="3.4034" height="61.2387" transform="matrix(0.952495 -0.320426 0.312139 0.935496 36.2339 318.195)" fill="#FF546C"/>
<ellipse rx="1.70356" ry="0.695159" transform="matrix(0.947801 -0.330822 0.322964 0.932881 37.7955 317.652)" fill="#C8374B"/>
<path d="M36.0154 335.734H72.2549L65.2016 378.302H43.3119L36.0154 335.734Z" fill="#7DB5C4"/>
<mask id="mask17_81_3467" style="mask-type:alpha" maskUnits="userSpaceOnUse" x="36" y="335" width="37" height="44">
<path d="M36.0154 335.734H72.2549L65.2016 378.302H43.3119L36.0154 335.734Z" fill="#7DB5C4"/>
</mask>
<g mask="url(#mask17_81_3467)">
<path d="M57.4186 388.145L66.1744 332.275L86.1183 333.606L75.6599 384.953L57.4186 388.145Z" fill="#64A6C0"/>
</g>
<mask id="mask18_81_3467" style="mask-type:alpha" maskUnits="userSpaceOnUse" x="36" y="335" width="37" height="44">
<path d="M36.0154 335.734H72.2549L65.2016 378.302H43.3119L36.0154 335.734Z" fill="#7DB5C4"/>
</mask>
<g mask="url(#mask18_81_3467)">
<path fill-rule="evenodd" clip-rule="evenodd" d="M77.6058 349.629H32.3672V347.912H77.6058V349.629ZM77.6058 356.812H34.7994V355.095H77.6058V356.812Z" fill="white"/>
</g>
<path fill-rule="evenodd" clip-rule="evenodd" d="M18.9211 378.206C18.9211 377.732 19.3038 377.348 19.7758 377.348H421.487C421.959 377.348 422.342 377.732 422.342 378.206C422.342 378.68 421.959 379.064 421.487 379.064H19.7758C19.3038 379.064 18.9211 378.68 18.9211 378.206Z" fill="#0E374B"/>
<path fill-rule="evenodd" clip-rule="evenodd" d="M342.132 35.0213C340.159 34.3566 338.11 33.9081 335.99 33.6976L336.259 30.9646C338.588 31.1958 340.838 31.6887 343.002 32.4175L342.132 35.0213ZM329.693 33.7684C328.666 33.8898 327.623 34.0652 326.565 34.2971C325.827 34.4587 325.098 33.9891 324.937 33.2482C324.776 32.5073 325.244 31.7756 325.982 31.6139C327.125 31.3634 328.256 31.1731 329.374 31.041L329.693 33.7684ZM353.009 41.3975C351.37 39.9756 349.652 38.7249 347.862 37.6643L349.252 35.299C351.193 36.4492 353.043 37.7979 354.797 39.319L353.009 41.3975ZM361.394 51.1059C360.177 49.2722 358.883 47.5501 357.517 45.9555L359.591 44.1648C361.034 45.85 362.395 47.6622 363.67 49.5824L361.394 51.1059ZM367.443 62.5694C366.597 60.535 365.677 58.5679 364.687 56.6816L367.106 55.4011C368.136 57.3632 369.09 59.4047 369.967 61.5109L367.443 62.5694ZM371.487 74.9616C370.964 72.8302 370.367 70.7345 369.701 68.6866L372.301 67.8341C372.989 69.9477 373.603 72.1084 374.143 74.3038L371.487 74.9616ZM373.712 87.8315C373.488 85.6585 373.191 83.4963 372.821 81.3561L375.516 80.8871C375.897 83.0893 376.203 85.314 376.432 87.5496L373.712 87.8315ZM374.143 100.882C374.225 98.7137 374.229 96.5328 374.156 94.3508L376.889 94.2588C376.964 96.505 376.961 98.7515 376.876 100.987L374.143 100.882ZM372.651 113.829C373.07 111.715 373.403 109.564 373.651 107.388L376.369 107.701C376.112 109.949 375.768 112.175 375.334 114.365L372.651 113.829ZM370.111 123.228C370.466 122.213 370.797 121.184 371.104 120.141L373.727 120.921C373.407 122.006 373.062 123.079 372.692 124.137C372.311 125.228 371.924 126.264 371.531 127.248L368.992 126.226C369.369 125.282 369.743 124.283 370.111 123.228ZM352.57 123.187C350.277 123.36 348.908 124.256 348.115 125.411L345.864 123.852C347.196 121.911 349.379 120.673 352.366 120.448L352.57 123.187ZM361.335 124.963C360.299 124.56 359.329 124.231 358.423 123.971L359.176 121.33C360.17 121.616 361.218 121.972 362.323 122.402C363.435 122.835 364.507 123.345 365.537 123.926L364.198 126.321C363.278 125.802 362.324 125.348 361.335 124.963ZM373.387 135.115C372.141 133.269 370.77 131.606 369.278 130.155L371.18 128.182C372.821 129.778 374.311 131.588 375.651 133.575L373.387 135.115ZM347.2 130.61C347.452 132.447 348.165 134.364 349.224 136.032L346.918 137.508C345.659 135.526 344.8 133.236 344.49 130.986L347.2 130.61ZM362.925 136.9C364.055 135.627 365.209 133.978 366.359 131.885L368.754 133.211C367.526 135.447 366.259 137.272 364.966 138.728L362.925 136.9ZM378.936 146.92C378.251 144.771 377.46 142.722 376.566 140.795L379.046 139.636C379.992 141.676 380.824 143.833 381.541 146.083L378.936 146.92ZM353.273 139.908C354.825 140.691 356.548 140.899 358.383 140.241L359.303 142.827C356.699 143.761 354.2 143.45 352.044 142.362L353.273 139.908ZM381.66 159.851C381.399 157.622 381.048 155.44 380.607 153.322L383.285 152.76C383.743 154.961 384.107 157.224 384.377 159.53L381.66 159.851ZM382.161 173.119C382.245 170.888 382.246 168.67 382.166 166.478L384.899 166.376C384.982 168.637 384.98 170.925 384.894 173.223L382.161 173.119ZM380.701 186.329C381.104 184.15 381.427 181.953 381.67 179.753L384.388 180.056C384.138 182.321 383.805 184.584 383.39 186.83L380.701 186.329ZM377.301 199.156C378.032 197.083 378.682 194.963 379.25 192.811L381.894 193.515C381.307 195.736 380.636 197.927 379.879 200.073L377.301 199.156ZM371.798 211.167C372.895 209.286 373.905 207.324 374.829 205.297L377.316 206.44C376.356 208.546 375.304 210.59 374.159 212.554L371.798 211.167ZM363.921 221.644C365.431 220.097 366.849 218.429 368.175 216.656L370.362 218.305C368.969 220.168 367.473 221.929 365.874 223.566L363.921 221.644ZM353.555 229.44C355.479 228.435 357.306 227.27 359.038 225.961L360.683 228.155C358.836 229.551 356.881 230.799 354.818 231.877L353.555 229.44ZM344.436 232.781C345.507 232.541 346.553 232.257 347.577 231.932L348.402 234.55C347.304 234.899 346.181 235.203 345.034 235.461L344.436 232.781Z" fill="#FFBA55"/>
<defs>
<filter id="filter0_i_81_3467" x="184.193" y="350.016" width="49.3354" height="30.7174" filterUnits="userSpaceOnUse" color-interpolation-filters="sRGB">
<feFlood flood-opacity="0" result="BackgroundImageFix"/>
<feBlend mode="normal" in="SourceGraphic" in2="BackgroundImageFix" result="shape"/>
<feColorMatrix in="SourceAlpha" type="matrix" values="0 0 0 0 0 0 0 0 0 0 0 0 0 0 0 0 0 0 127 0" result="hardAlpha"/>
<feOffset dx="5" dy="6"/>
<feGaussianBlur stdDeviation="5"/>
<feComposite in2="hardAlpha" operator="arithmetic" k2="-1" k3="1"/>
<feColorMatrix type="matrix" values="0 0 0 0 0.956863 0 0 0 0 0.54902 0 0 0 0 0.419608 0 0 0 0.5 0"/>
<feBlend mode="normal" in2="shape" result="effect1_innerShadow_81_3467"/>
</filter>
<filter id="filter1_i_81_3467" x="232.48" y="352.534" width="29.6816" height="28.6645" filterUnits="userSpaceOnUse" color-interpolation-filters="sRGB">
<feFlood flood-opacity="0" result="BackgroundImageFix"/>
<feBlend mode="normal" in="SourceGraphic" in2="BackgroundImageFix" result="shape"/>
<feColorMatrix in="SourceAlpha" type="matrix" values="0 0 0 0 0 0 0 0 0 0 0 0 0 0 0 0 0 0 127 0" result="hardAlpha"/>
<feOffset dy="9"/>
<feGaussianBlur stdDeviation="5"/>
<feComposite in2="hardAlpha" operator="arithmetic" k2="-1" k3="1"/>
<feColorMatrix type="matrix" values="0 0 0 0 0.956863 0 0 0 0 0.54902 0 0 0 0 0.419608 0 0 0 0.5 0"/>
<feBlend mode="normal" in2="shape" result="effect1_innerShadow_81_3467"/>
</filter>
<filter id="filter2_i_81_3467" x="197.95" y="370.139" width="161.71" height="10.8657" filterUnits="userSpaceOnUse" color-interpolation-filters="sRGB">
<feFlood flood-opacity="0" result="BackgroundImageFix"/>
<feBlend mode="normal" in="SourceGraphic" in2="BackgroundImageFix" result="shape"/>
<feColorMatrix in="SourceAlpha" type="matrix" values="0 0 0 0 0 0 0 0 0 0 0 0 0 0 0 0 0 0 127 0" result="hardAlpha"/>
<feOffset dy="4"/>
<feGaussianBlur stdDeviation="5"/>
<feComposite in2="hardAlpha" operator="arithmetic" k2="-1" k3="1"/>
<feColorMatrix type="matrix" values="0 0 0 0 0 0 0 0 0 0 0 0 0 0 0 0 0 0 0.1 0"/>
<feBlend mode="normal" in2="shape" result="effect1_innerShadow_81_3467"/>
</filter>
<filter id="filter3_i_81_3467" x="239.318" y="279.511" width="162.112" height="102.18" filterUnits="userSpaceOnUse" color-interpolation-filters="sRGB">
<feFlood flood-opacity="0" result="BackgroundImageFix"/>
<feBlend mode="normal" in="SourceGraphic" in2="BackgroundImageFix" result="shape"/>
<feColorMatrix in="SourceAlpha" type="matrix" values="0 0 0 0 0 0 0 0 0 0 0 0 0 0 0 0 0 0 127 0" result="hardAlpha"/>
<feOffset dy="4"/>
<feGaussianBlur stdDeviation="25"/>
<feComposite in2="hardAlpha" operator="arithmetic" k2="-1" k3="1"/>
<feColorMatrix type="matrix" values="0 0 0 0 0 0 0 0 0 0 0 0 0 0 0 0 0 0 0.05 0"/>
<feBlend mode="normal" in2="shape" result="effect1_innerShadow_81_3467"/>
</filter>
<filter id="filter4_d_81_3467" x="317.42" y="323.452" width="18.9402" height="18.9852" filterUnits="userSpaceOnUse" color-interpolation-filters="sRGB">
<feFlood flood-opacity="0" result="BackgroundImageFix"/>
<feColorMatrix in="SourceAlpha" type="matrix" values="0 0 0 0 0 0 0 0 0 0 0 0 0 0 0 0 0 0 127 0" result="hardAlpha"/>
<feOffset dx="-2" dy="4"/>
<feGaussianBlur stdDeviation="2"/>
<feColorMatrix type="matrix" values="0 0 0 0 0 0 0 0 0 0 0 0 0 0 0 0 0 0 0.04 0"/>
<feBlend mode="normal" in2="BackgroundImageFix" result="effect1_dropShadow_81_3467"/>
<feBlend mode="normal" in="SourceGraphic" in2="effect1_dropShadow_81_3467" result="shape"/>
</filter>
</defs>
</svg>
