<svg width="138" height="19" viewBox="0 0 138 19" fill="none" xmlns="http://www.w3.org/2000/svg">
<path d="M0.723367 18V0.545454H7.93359C9.24041 0.545454 10.3683 0.801136 11.3171 1.3125C12.2717 1.81818 13.0075 2.52557 13.5245 3.43466C14.0415 4.33807 14.3001 5.3892 14.3001 6.58807C14.3001 7.79261 14.0359 8.84659 13.5075 9.75C12.9847 10.6477 12.2376 11.3437 11.266 11.8381C10.2944 12.3324 9.14098 12.5795 7.80575 12.5795H3.35689V9.25568H7.02166C7.65803 9.25568 8.18928 9.14489 8.61541 8.9233C9.04723 8.7017 9.37394 8.39205 9.59553 7.99432C9.81712 7.59091 9.92791 7.12216 9.92791 6.58807C9.92791 6.04829 9.81712 5.58239 9.59553 5.19034C9.37394 4.79261 9.04723 4.4858 8.61541 4.26989C8.18359 4.05398 7.65234 3.94602 7.02166 3.94602H4.94212V18H0.723367ZM19.6012 18.2216C18.766 18.2216 18.0245 18.0824 17.3768 17.804C16.7347 17.5199 16.2262 17.0937 15.8512 16.5256C15.4819 15.9517 15.2972 15.233 15.2972 14.3693C15.2972 13.642 15.4251 13.0284 15.6808 12.5284C15.9364 12.0284 16.2887 11.6222 16.7376 11.3097C17.1864 10.9972 17.7035 10.7614 18.2887 10.6023C18.8739 10.4375 19.4989 10.3267 20.1637 10.2699C20.908 10.2017 21.5075 10.1307 21.962 10.0568C22.4165 9.97727 22.7461 9.86648 22.9506 9.72443C23.1609 9.5767 23.266 9.36932 23.266 9.10227V9.05966C23.266 8.62216 23.1154 8.28409 22.8143 8.04545C22.5131 7.80682 22.1069 7.6875 21.5955 7.6875C21.0444 7.6875 20.6012 7.80682 20.266 8.04545C19.9308 8.28409 19.7177 8.61364 19.6268 9.03409L15.783 8.89773C15.8967 8.10227 16.1893 7.39205 16.6609 6.76705C17.1381 6.13636 17.7915 5.64205 18.6211 5.28409C19.4563 4.92045 20.4592 4.73864 21.6296 4.73864C22.4648 4.73864 23.2347 4.83807 23.9393 5.03693C24.6438 5.23011 25.2575 5.5142 25.7802 5.8892C26.3029 6.25852 26.7063 6.71307 26.9904 7.25284C27.2802 7.79261 27.4251 8.40909 27.4251 9.10227V18H23.5046V16.1761H23.4023C23.1694 16.6193 22.8711 16.9943 22.5075 17.3011C22.1495 17.608 21.7262 17.8381 21.2376 17.9915C20.7546 18.1449 20.2092 18.2216 19.6012 18.2216ZM20.8881 15.4943C21.337 15.4943 21.7404 15.4034 22.0984 15.2216C22.462 15.0398 22.7518 14.7898 22.9677 14.4716C23.1836 14.1477 23.2915 13.7727 23.2915 13.3466V12.1023C23.1722 12.1648 23.0273 12.2216 22.8569 12.2727C22.6921 12.3239 22.5103 12.3722 22.3114 12.4176C22.1126 12.4631 21.908 12.5028 21.6978 12.5369C21.4876 12.571 21.2859 12.6023 21.0927 12.6307C20.7006 12.6932 20.3654 12.7898 20.087 12.9205C19.8143 13.0511 19.604 13.2216 19.4563 13.4318C19.3143 13.6364 19.2433 13.8807 19.2433 14.1648C19.2433 14.5966 19.3967 14.9261 19.7035 15.1534C20.016 15.3807 20.4109 15.4943 20.8881 15.4943ZM36.0842 18.2472C34.7035 18.2472 33.5188 17.9631 32.5302 17.3949C31.5472 16.8267 30.7915 16.0369 30.2631 15.0256C29.7347 14.0085 29.4705 12.8324 29.4705 11.4972C29.4705 10.1562 29.7347 8.98011 30.2631 7.96875C30.7972 6.9517 31.5558 6.15909 32.5387 5.59091C33.5273 5.02273 34.7063 4.73864 36.0756 4.73864C37.2859 4.73864 38.3398 4.95739 39.2376 5.39489C40.141 5.83239 40.8455 6.4517 41.3512 7.25284C41.8626 8.0483 42.1325 8.98295 42.1609 10.0568H38.266C38.1864 9.38636 37.9592 8.8608 37.5842 8.48011C37.2148 8.09943 36.7319 7.90909 36.1353 7.90909C35.6523 7.90909 35.229 8.04545 34.8654 8.31818C34.5018 8.58523 34.2177 8.98295 34.0131 9.51136C33.8143 10.0341 33.7148 10.6818 33.7148 11.4545C33.7148 12.2273 33.8143 12.8807 34.0131 13.4148C34.2177 13.9432 34.5018 14.3437 34.8654 14.6165C35.229 14.8835 35.6523 15.017 36.1353 15.017C36.5217 15.017 36.8626 14.9347 37.158 14.7699C37.4592 14.6051 37.7063 14.3636 37.8995 14.0455C38.0927 13.7216 38.2148 13.3295 38.266 12.8693H42.1609C42.1211 13.9489 41.8512 14.892 41.3512 15.6989C40.8569 16.5057 40.1609 17.1335 39.2631 17.5824C38.3711 18.0256 37.3114 18.2472 36.0842 18.2472ZM48.0522 14.5653L48.0692 9.59659H48.6488L52.3306 4.90909H57.0522L51.5806 11.625H50.4812L48.0522 14.5653ZM44.2937 18V0.545454H48.4613V18H44.2937ZM52.4244 18L48.9982 12.5625L51.7425 9.60511L57.2397 18H52.4244ZM58.5437 18V0.545454H65.7539C67.0607 0.545454 68.1886 0.78125 69.1374 1.25284C70.092 1.71875 70.8278 2.3892 71.3448 3.2642C71.8619 4.13352 72.1204 5.16477 72.1204 6.35795C72.1204 7.56818 71.8562 8.59659 71.3278 9.44318C70.7994 10.2841 70.0494 10.9261 69.0778 11.3693C68.1062 11.8068 66.9556 12.0256 65.6261 12.0256H61.0664V8.7017H64.842C65.4783 8.7017 66.0096 8.61932 66.4357 8.45455C66.8675 8.28409 67.1942 8.02841 67.4158 7.6875C67.6374 7.34091 67.7482 6.89773 67.7482 6.35795C67.7482 5.81818 67.6374 5.37216 67.4158 5.01989C67.1942 4.66193 66.8675 4.39489 66.4357 4.21875C66.0039 4.03693 65.4727 3.94602 64.842 3.94602H62.7624V18H58.5437ZM68.3704 10.0227L72.717 18H68.1147L63.8533 10.0227H68.3704ZM80.2873 18.2472C78.9123 18.2472 77.7305 17.9659 76.7418 17.4034C75.7589 16.8352 75.0004 16.0455 74.4663 15.0341C73.9379 14.017 73.6737 12.8381 73.6737 11.4972C73.6737 10.1506 73.9379 8.97159 74.4663 7.96023C75.0004 6.94318 75.7589 6.15341 76.7418 5.59091C77.7305 5.02273 78.9123 4.73864 80.2873 4.73864C81.6623 4.73864 82.8413 5.02273 83.8242 5.59091C84.8129 6.15341 85.5714 6.94318 86.0998 7.96023C86.6339 8.97159 86.9009 10.1506 86.9009 11.4972C86.9009 12.8381 86.6339 14.017 86.0998 15.0341C85.5714 16.0455 84.8129 16.8352 83.8242 17.4034C82.8413 17.9659 81.6623 18.2472 80.2873 18.2472ZM80.3129 15.1023C80.8129 15.1023 81.2362 14.9489 81.5827 14.642C81.9293 14.3352 82.1935 13.9091 82.3754 13.3636C82.5629 12.8182 82.6566 12.1875 82.6566 11.4716C82.6566 10.7443 82.5629 10.108 82.3754 9.5625C82.1935 9.01705 81.9293 8.59091 81.5827 8.28409C81.2362 7.97727 80.8129 7.82386 80.3129 7.82386C79.7958 7.82386 79.3583 7.97727 79.0004 8.28409C78.6481 8.59091 78.3782 9.01705 78.1907 9.5625C78.0089 10.108 77.918 10.7443 77.918 11.4716C77.918 12.1875 78.0089 12.8182 78.1907 13.3636C78.3782 13.9091 78.6481 14.3352 79.0004 14.642C79.3583 14.9489 79.7958 15.1023 80.3129 15.1023ZM95.1467 18.2472C93.7717 18.2472 92.5898 17.9659 91.6012 17.4034C90.6183 16.8352 89.8597 16.0455 89.3256 15.0341C88.7972 14.017 88.533 12.8381 88.533 11.4972C88.533 10.1506 88.7972 8.97159 89.3256 7.96023C89.8597 6.94318 90.6183 6.15341 91.6012 5.59091C92.5898 5.02273 93.7717 4.73864 95.1467 4.73864C96.5217 4.73864 97.7006 5.02273 98.6836 5.59091C99.6722 6.15341 100.431 6.94318 100.959 7.96023C101.493 8.97159 101.76 10.1506 101.76 11.4972C101.76 12.8381 101.493 14.017 100.959 15.0341C100.431 16.0455 99.6722 16.8352 98.6836 17.4034C97.7006 17.9659 96.5217 18.2472 95.1467 18.2472ZM95.1722 15.1023C95.6722 15.1023 96.0955 14.9489 96.4421 14.642C96.7887 14.3352 97.0529 13.9091 97.2347 13.3636C97.4222 12.8182 97.516 12.1875 97.516 11.4716C97.516 10.7443 97.4222 10.108 97.2347 9.5625C97.0529 9.01705 96.7887 8.59091 96.4421 8.28409C96.0955 7.97727 95.6722 7.82386 95.1722 7.82386C94.6552 7.82386 94.2177 7.97727 93.8597 8.28409C93.5075 8.59091 93.2376 9.01705 93.0501 9.5625C92.8683 10.108 92.7773 10.7443 92.7773 11.4716C92.7773 12.1875 92.8683 12.8182 93.0501 13.3636C93.2376 13.9091 93.5075 14.3352 93.8597 14.642C94.2177 14.9489 94.6552 15.1023 95.1722 15.1023ZM103.895 18V4.90909H107.858V7.3125H108.003C108.276 6.51705 108.736 5.8892 109.384 5.42898C110.032 4.96875 110.804 4.73864 111.702 4.73864C112.611 4.73864 113.39 4.97159 114.037 5.4375C114.685 5.90341 115.097 6.52841 115.273 7.3125H115.409C115.654 6.53409 116.131 5.91193 116.841 5.44602C117.551 4.97443 118.39 4.73864 119.355 4.73864C120.594 4.73864 121.6 5.13636 122.373 5.93182C123.145 6.72159 123.532 7.80682 123.532 9.1875V18H119.364V10.142C119.364 9.48864 119.196 8.99148 118.861 8.65057C118.526 8.30398 118.091 8.13068 117.557 8.13068C116.983 8.13068 116.532 8.31818 116.202 8.69318C115.878 9.0625 115.716 9.55966 115.716 10.1847V18H111.711V10.0994C111.711 9.49148 111.546 9.01136 111.216 8.65909C110.887 8.30682 110.452 8.13068 109.912 8.13068C109.549 8.13068 109.228 8.21875 108.949 8.39489C108.671 8.56534 108.452 8.80966 108.293 9.12784C108.14 9.44602 108.063 9.82102 108.063 10.2528V18H103.895ZM137.543 8.90625L133.716 9.00852C133.676 8.7358 133.569 8.49432 133.392 8.28409C133.216 8.06818 132.986 7.90057 132.702 7.78125C132.424 7.65625 132.1 7.59375 131.73 7.59375C131.248 7.59375 130.836 7.69034 130.495 7.88352C130.159 8.0767 129.995 8.33807 130 8.66761C129.995 8.9233 130.097 9.14489 130.307 9.33239C130.523 9.51989 130.907 9.67045 131.458 9.78409L133.98 10.2614C135.287 10.5114 136.259 10.9261 136.895 11.5057C137.537 12.0852 137.861 12.8523 137.867 13.8068C137.861 14.7045 137.594 15.4858 137.066 16.1506C136.543 16.8153 135.827 17.3324 134.918 17.7017C134.009 18.0653 132.969 18.2472 131.799 18.2472C129.929 18.2472 128.455 17.8636 127.375 17.0966C126.301 16.3239 125.688 15.2898 125.534 13.9943L129.651 13.892C129.742 14.3693 129.978 14.733 130.358 14.983C130.739 15.233 131.225 15.358 131.816 15.358C132.35 15.358 132.784 15.2585 133.12 15.0597C133.455 14.8608 133.625 14.5966 133.631 14.267C133.625 13.9716 133.495 13.7358 133.239 13.5597C132.983 13.3778 132.583 13.2358 132.037 13.1335L129.753 12.6989C128.441 12.4602 127.463 12.0199 126.821 11.3778C126.179 10.7301 125.861 9.90625 125.867 8.90625C125.861 8.03125 126.094 7.28409 126.566 6.66477C127.037 6.03977 127.708 5.5625 128.577 5.23295C129.446 4.90341 130.472 4.73864 131.654 4.73864C133.426 4.73864 134.824 5.1108 135.847 5.85511C136.87 6.59375 137.435 7.6108 137.543 8.90625Z" fill="#72E2E8"/>
</svg>
